<svg xmlns="http://www.w3.org/2000/svg" width="25" height="25" viewBox="0 0 25 25" fill="none">
  <g clip-path="url(#clip0_1_12)">
    <path d="M18.6555 8.99072H17.6555V6.99072C17.6555 4.23072 15.4155 1.99072 12.6555 1.99072C9.89552 1.99072 7.65552 4.23072 7.65552 6.99072V8.99072H6.65552C5.55552 8.99072 4.65552 9.89072 4.65552 10.9907V20.9907C4.65552 22.0907 5.55552 22.9907 6.65552 22.9907H18.6555C19.7555 22.9907 20.6555 22.0907 20.6555 20.9907V10.9907C20.6555 9.89072 19.7555 8.99072 18.6555 8.99072ZM12.6555 17.9907C11.5555 17.9907 10.6555 17.0907 10.6555 15.9907C10.6555 14.8907 11.5555 13.9907 12.6555 13.9907C13.7555 13.9907 14.6555 14.8907 14.6555 15.9907C14.6555 17.0907 13.7555 17.9907 12.6555 17.9907ZM9.65552 8.99072V6.99072C9.65552 5.33072 10.9955 3.99072 12.6555 3.99072C14.3155 3.99072 15.6555 5.33072 15.6555 6.99072V8.99072H9.65552Z" fill="#828282"/>
  </g>
  <defs>
    <clipPath id="clip0_1_12">
      <rect width="24" height="24" fill="white" transform="translate(0.655518 0.990723)"/>
    </clipPath>
  </defs>
</svg>