<svg xmlns="http://www.w3.org/2000/svg" width="19" height="19" viewBox="0 0 19 19" fill="none">
  <g clip-path="url(#clip0_570_414)">
    <path d="M9.06494 0.689453C4.12164 0.689453 0.0649414 4.74615 0.0649414 9.68945C0.0649414 13.9078 3.02493 17.7397 6.95557 18.6895V15.7119C6.5661 15.7972 6.20767 15.7996 5.8112 15.6828C5.27933 15.5258 4.84715 15.1715 4.52635 14.6312C4.32187 14.2863 3.95946 13.9122 3.58139 13.9397L3.48869 12.8891C4.30621 12.819 5.01346 13.3872 5.43327 14.0925C5.61977 14.4062 5.83441 14.59 6.10989 14.6713C6.37617 14.7498 6.66209 14.7121 6.99525 14.5944C7.07889 13.9274 7.38445 13.6778 7.6153 13.3262V13.3257C5.27109 12.976 4.33684 11.7324 3.96605 10.7507C3.47469 9.44734 3.73836 7.81903 4.60724 6.79002C4.62413 6.76997 4.65462 6.71751 4.64281 6.68085C4.24442 5.47743 4.72987 4.48193 4.74773 4.37633C5.2075 4.51228 5.28221 4.23955 6.7449 5.1282L6.99773 5.28009C7.10347 5.34312 7.07024 5.30714 7.17598 5.29918C7.78668 5.13329 8.43048 5.04169 9.0648 5.03345C9.70393 5.04169 10.3436 5.13329 10.9796 5.30591L11.0614 5.31415C11.0543 5.31305 11.0837 5.30893 11.133 5.27954C12.9601 4.17281 12.8945 4.53453 13.3845 4.37523C13.4022 4.48097 13.8812 5.49268 13.4871 6.68085C13.4339 6.84454 15.0712 8.34377 14.1637 10.7503C13.7929 11.7324 12.8588 12.976 10.5146 13.3257V13.3262C10.8151 13.7842 11.1761 14.0278 11.1742 14.9726V18.6895C15.1049 17.7397 18.0648 13.9078 18.0648 9.68945C18.0649 4.74615 14.0082 0.689453 9.06494 0.689453V0.689453Z" fill="#828282"/>
  </g>
  <defs>
    <clipPath id="clip0_570_414">
      <rect width="18" height="18" fill="white" transform="translate(0.0649414 0.689453)"/>
    </clipPath>
  </defs>
</svg>