<svg xmlns="http://www.w3.org/2000/svg" width="19" height="19" viewBox="0 0 19 19" fill="none">
  <path d="M9.6893 4.13589C11.5746 4.13589 13.2799 5.10327 14.2573 6.43623L16.5738 4.10317C15.1883 2.3016 12.5218 0.873047 9.6893 0.873047C4.72983 0.873047 0.662109 4.88638 0.662109 9.84586C0.662109 14.8053 4.72983 18.8187 9.6893 18.8187C13.8006 18.8187 17.259 16.0616 18.3195 12.293C18.5478 11.5098 18.6621 10.6941 18.6621 9.84586V9.03015H10.505V12.2923H14.8283C13.931 14.2176 11.9569 15.5558 9.6893 15.5558C6.54074 15.5558 3.92495 12.9944 3.92495 9.84586C3.92495 6.6973 6.54074 4.13589 9.6893 4.13589Z" fill="#828282"/>
</svg>