<svg xmlns="http://www.w3.org/2000/svg" width="25" height="25" viewBox="0 0 25 25" fill="none">
  <g clip-path="url(#clip0_1_7)">
    <path d="M20.6555 4.49072H4.65552C3.55552 4.49072 2.65552 5.39072 2.65552 6.49072V18.4907C2.65552 19.5907 3.55552 20.4907 4.65552 20.4907H20.6555C21.7555 20.4907 22.6555 19.5907 22.6555 18.4907V6.49072C22.6555 5.39072 21.7555 4.49072 20.6555 4.49072ZM20.2555 8.74072L13.7155 12.8307C13.0655 13.2407 12.2455 13.2407 11.5955 12.8307L5.05552 8.74072C4.80552 8.58072 4.65552 8.31072 4.65552 8.02072C4.65552 7.35072 5.38552 6.95072 5.95552 7.30072L12.6555 11.4907L19.3555 7.30072C19.9255 6.95072 20.6555 7.35072 20.6555 8.02072C20.6555 8.31072 20.5055 8.58072 20.2555 8.74072Z" fill="#828282"/>
  </g>
  <defs>
    <clipPath id="clip0_1_7">
      <rect width="24" height="24" fill="white" transform="translate(0.655518 0.490723)"/>
    </clipPath>
  </defs>
</svg>