<svg xmlns="http://www.w3.org/2000/svg" width="19" height="19" viewBox="0 0 19 19" fill="none">
  <g clip-path="url(#clip0_570_416)">
    <path d="M7.22939 17.0733C6.45101 17.0733 5.64984 17.0103 4.84385 16.884C3.42429 16.6612 1.98728 15.9187 1.58065 15.6963L0.51416 15.1132L1.66882 14.7335C2.93101 14.3185 3.69881 14.061 4.64926 13.6578C3.69757 13.197 2.9641 12.3679 2.61103 11.2962L2.34242 10.4807L2.56269 10.5144C2.35381 10.3039 2.18888 10.0902 2.06103 9.89586C1.60633 9.20523 1.3656 8.36135 1.41682 7.63817L1.46736 6.9264L1.89349 7.09147C1.71373 6.75199 1.58381 6.38944 1.50746 6.00946C1.32138 5.08276 1.47711 4.09825 1.94609 3.23734L2.31728 2.55592L2.81373 3.1522C4.3838 5.03827 6.37246 6.15708 8.73273 6.48461C8.63632 5.82008 8.70856 5.17876 8.94764 4.6039C9.22601 3.93456 9.72122 3.36698 10.3793 2.96241C11.1102 2.51321 11.9965 2.29554 12.875 2.34951C13.807 2.40678 14.6532 2.75601 15.3253 3.36011C15.6535 3.27483 15.8954 3.18378 16.2222 3.06074C16.4189 2.98672 16.6419 2.90267 16.9209 2.80654L17.9493 2.45223L17.2787 4.36742C17.3229 4.36371 17.3685 4.36055 17.4161 4.35849L18.5142 4.30878L17.8652 5.19578C17.828 5.2466 17.8185 5.26102 17.8053 5.28093C17.753 5.35976 17.6879 5.45781 16.7971 6.64735C16.574 6.94521 16.4627 7.33317 16.4834 7.73993C16.5624 9.2857 16.3727 10.6843 15.9194 11.8966C15.4907 13.0436 14.8263 14.0277 13.9449 14.8216C12.8542 15.8037 11.4635 16.4762 9.81117 16.8201C9.00065 16.9887 8.13026 17.0733 7.22939 17.0733Z" fill="#828282"/>
  </g>
  <defs>
    <clipPath id="clip0_570_416">
      <rect width="18" height="17.9999" fill="white" transform="translate(0.51416 0.689453)"/>
    </clipPath>
  </defs>
</svg>